<?xml version="1.0" encoding="UTF-8" standalone="no"?><!DOCTYPE svg PUBLIC "-//W3C//DTD SVG 1.1//EN" "http://www.w3.org/Graphics/SVG/1.1/DTD/svg11.dtd"><svg width="100%" height="100%" viewBox="0 0 764 593" version="1.1" xmlns="http://www.w3.org/2000/svg" xmlns:xlink="http://www.w3.org/1999/xlink" xml:space="preserve" xmlns:serif="http://www.serif.com/" style="fill-rule:evenodd;clip-rule:evenodd;stroke-linejoin:round;stroke-miterlimit:2;"><g id="Main-logo" serif:id="Main logo"><path d="M345.927,587.817c-88.816,-27.515 -130.586,-140.088 -125.718,-214.666c0.972,-14.887 32.227,-257.852 86.586,-331.826c42.448,-57.764 117.839,-58.301 161.248,19.617c20.587,36.954 37.623,105.796 39.968,115.27l28.511,146.199c31.02,126.184 -43.518,294.408 -190.595,265.406" style="fill:#43484f;fill-opacity:0.46;"/><path d="M381.648,591.118l-284.232,-0.701c-34.653,-5.579 -61.963,-19.725 -79.629,-45.123c-17.64,-23.668 -19.996,-46.554 -16.281,-70.323c3.266,-20.898 15.27,-39.606 30.88,-53.766c29.465,-24.12 60.987,-39.138 98.19,-58.382l97.291,-44.682c20.89,-10.176 42.064,-14.671 63.533,-13.25c23.508,1.391 38.258,8.621 51.302,16.988c29.386,18.849 38.946,52.226 38.946,52.226l0,217.014Z" style="fill:#393e46;"/><path d="M100.012,242.54c-4.224,-54.706 19.219,-85.274 85.584,-78.352l69.209,10.034c16.399,3.37 33.088,7.415 50.305,12.472c24.252,7.122 49.552,16.251 76.571,28.326c50.594,22.855 83.708,40.326 139.092,93.602c33.57,32.293 23.306,101.133 10.925,147.306c-22.744,84.824 -89.566,135.193 -151.823,136.669c-70.989,-4.592 -136.736,-38.511 -194.004,-106.693c-27.045,-35.819 -48.056,-76.94 -60.451,-122.934c-13.326,-36.746 -22.228,-75.766 -25.408,-120.43Z" style="fill:#222831;fill-opacity:0.75;"/><path d="M666.637,242.262c4.258,-54.517 -19.361,-84.978 -86.227,-78.077l-69.732,10.002c-39.798,8.091 -81.286,20.083 -127.836,40.662c-50.977,22.778 -84.342,40.189 -140.146,93.283c-33.824,32.182 -23.486,100.784 -11.013,146.797c22.913,84.529 90.236,134.721 152.963,136.189c71.526,-4.579 137.769,-38.383 195.472,-106.332c27.251,-35.696 48.422,-76.675 60.912,-122.51c13.428,-36.62 22.399,-75.504 25.605,-120.014Z" style="fill:#00adb5;fill-opacity:0.48;"/><path d="M381.648,591.118l284.232,-0.701c34.653,-5.579 61.963,-19.725 79.629,-45.123c17.64,-23.668 19.996,-46.554 16.281,-70.323c-3.266,-20.898 -15.27,-39.606 -30.88,-53.766c-29.465,-24.12 -60.987,-39.138 -98.19,-58.382l-97.291,-44.682c-20.89,-10.176 -42.064,-14.671 -63.533,-13.25c-23.508,1.391 -38.258,8.621 -51.302,16.988c-29.386,18.849 -38.946,52.226 -38.946,52.226l0,217.014Z" style="fill:#85d8dc;fill-opacity:0.35;"/></g></svg>